<svg width="25" height="24" viewBox="0 0 25 24" fill="none" xmlns="http://www.w3.org/2000/svg"><mask id="mask0_3909_4703" style="mask-type:alpha" maskUnits="userSpaceOnUse" x="0" y="0" width="25" height="24"><rect x="0.333984" width="24" height="24" fill="currentColor"></rect></mask><g mask="url(#mask0_3909_4703)"><path d="M7.06523 23.3251L10.1967 7.53485C10.3062 6.99502 10.5548 6.5901 10.9425 6.3201C11.3302 6.05026 11.7439 5.91535 12.1837 5.91535C12.5954 5.91535 12.9849 6.0081 13.3522 6.1936C13.7196 6.3791 14.0126 6.65268 14.2315 7.01435L15.2175 8.61435C15.5175 9.10702 15.8673 9.52327 16.267 9.8631C16.6665 10.2029 17.1181 10.4504 17.6217 10.6056V8.80235H19.5457V23.3251H17.6217V13.1468C16.9254 12.9918 16.2661 12.7402 15.644 12.3918C15.022 12.0437 14.461 11.6063 13.961 11.0796L13.474 13.5566L15.5457 15.5283V23.3251H13.1217V17.2261L11.361 15.5511L9.60323 23.3251H7.06523ZM7.22173 13.7186L3.74023 13.0306L5.19248 5.5196L8.71298 6.2326L7.22173 13.7186ZM13.8337 5.2881C13.2272 5.2881 12.7069 5.06877 12.2727 4.6301C11.8387 4.19127 11.6217 3.6686 11.6217 3.0621C11.6217 2.4556 11.8387 1.93526 12.2727 1.5011C12.7069 1.0671 13.2272 0.850098 13.8337 0.850098C14.4402 0.850098 14.9606 1.0671 15.3947 1.5011C15.8287 1.93526 16.0457 2.4556 16.0457 3.0621C16.0457 3.6686 15.8287 4.19127 15.3947 4.6301C14.9606 5.06877 14.4402 5.2881 13.8337 5.2881Z" fill="currentColor"></path></g></svg>