<svg width="24" height="24" viewBox="0 0 24 24" fill="none" xmlns="http://www.w3.org/2000/svg" class="h-6 w-6"><mask id="mask0_6288_5710" style="mask-type:alpha" maskUnits="userSpaceOnUse" x="0" y="0" width="24" height="24"><rect width="24" height="24" fill="#D9D9D9"></rect></mask><g mask="url(#mask0_6288_5710)"><path d="M1 11.4565L6.8195 1.00098L12.625 11.4565H1ZM6.83375 22.3185C5.59242 22.3185 4.53533 21.8844 3.6625 21.0162C2.78967 20.1481 2.35325 19.0933 2.35325 17.852C2.35325 16.6106 2.78967 15.5536 3.6625 14.6807C4.53533 13.8079 5.59242 13.3715 6.83375 13.3715C8.07492 13.3715 9.12958 13.8079 9.99775 14.6807C10.8659 15.5536 11.3 16.6106 11.3 17.852C11.3 19.0933 10.8659 20.1481 9.99775 21.0162C9.12958 21.8844 8.07492 22.3185 6.83375 22.3185ZM13.201 22.3185V13.3715H22.1478V22.3185H13.201ZM17.6815 11.4565C16.5808 10.5245 15.6767 9.74348 14.969 9.11348C14.2613 8.48331 13.7041 7.93164 13.2972 7.45848C12.8904 6.98531 12.606 6.54889 12.444 6.14923C12.282 5.74956 12.201 5.32256 12.201 4.86823C12.201 3.97689 12.4942 3.24698 13.0805 2.67848C13.6667 2.11014 14.4173 1.82598 15.3325 1.82598C15.8013 1.82598 16.241 1.93248 16.6515 2.14548C17.0622 2.35848 17.4055 2.65306 17.6815 3.02923C17.9577 2.65306 18.3033 2.35848 18.7185 2.14548C19.1337 1.93248 19.5757 1.82598 20.0445 1.82598C20.9598 1.82598 21.7083 2.11014 22.2898 2.67848C22.8713 3.24698 23.162 3.97689 23.162 4.86823C23.162 5.32256 23.081 5.74956 22.919 6.14923C22.757 6.54889 22.4726 6.98531 22.0658 7.45848C21.6589 7.93164 21.1017 8.48331 20.394 9.11348C19.6863 9.74348 18.7822 10.5245 17.6815 11.4565Z" fill="currentColor"></path></g></svg>