<svg height="24" width="24" viewBox="0 0 25 24" fill="none" xmlns="http://www.w3.org/2000/svg"><mask id="mask0_4425_2999" style="mask-type:alpha" maskUnits="userSpaceOnUse" x="0" y="0" width="25" height="24"><rect x="0.5" width="24" height="24" fill="#D9D9D9"></rect></mask><g mask="url(#mask0_4425_2999)"><path d="M12.5 22.4766C11.0414 22.4766 9.67545 22.2024 8.40228 21.6539C7.12911 21.1052 6.02128 20.3597 5.07878 19.4174C4.13645 18.4749 3.39095 17.367 2.84228 16.0939C2.29378 14.8207 2.01953 13.4548 2.01953 11.9961C2.01953 10.5375 2.29378 9.17154 2.84228 7.89838C3.39095 6.62521 4.13645 5.51737 5.07878 4.57487C6.02128 3.63254 7.12911 2.88704 8.40228 2.33837C9.67545 1.78987 11.0414 1.51562 12.5 1.51562C13.9587 1.51562 15.3246 1.78987 16.5978 2.33837C17.8709 2.88704 18.9788 3.63254 19.9213 4.57487C20.8636 5.51737 21.6091 6.62521 22.1578 7.89838C22.7063 9.17154 22.9805 10.5375 22.9805 11.9961C22.9805 12.4273 22.9579 12.8501 22.9125 13.2646C22.8672 13.6791 22.7956 14.0853 22.6978 14.4831C22.3798 14.1316 22.0077 13.8548 21.5815 13.6526C21.1555 13.4505 20.7026 13.3443 20.2228 13.3341C20.2634 13.1218 20.2915 12.903 20.307 12.6776C20.3227 12.4523 20.3305 12.2251 20.3305 11.9961C20.3305 9.80046 19.5744 7.94646 18.062 6.43412C16.5497 4.92179 14.6957 4.16563 12.5 4.16563C10.3044 4.16563 8.45036 4.92179 6.93803 6.43412C5.4257 7.94646 4.66953 9.80046 4.66953 11.9961C4.66953 14.1918 5.4257 16.0458 6.93803 17.5581C8.45036 19.0705 10.3044 19.8266 12.5 19.8266C13.3217 19.8266 14.1012 19.711 14.8385 19.4799C15.5759 19.2487 16.2601 18.9222 16.8913 18.5004C17.1008 18.9157 17.3867 19.2765 17.749 19.5826C18.1114 19.8888 18.5157 20.119 18.962 20.2734C18.0744 20.966 17.0825 21.5065 15.9865 21.8946C14.8905 22.2826 13.7284 22.4766 12.5 22.4766ZM20.061 18.4624C19.6262 18.4624 19.2549 18.3086 18.9473 18.0011C18.6396 17.6935 18.4858 17.3222 18.4858 16.8874C18.4858 16.4527 18.6396 16.0815 18.9473 15.7739C19.2549 15.4662 19.6262 15.3124 20.061 15.3124C20.4957 15.3124 20.8669 15.4662 21.1745 15.7739C21.4822 16.0815 21.636 16.4527 21.636 16.8874C21.636 17.3222 21.4822 17.6935 21.1745 18.0011C20.8669 18.3086 20.4957 18.4624 20.061 18.4624ZM15.588 16.7809L11.288 12.4809V7.06687H13.712V11.4831L17.313 15.0841L15.588 16.7809Z" fill="#100F0F"></path></g></svg>