<svg width="24" height="24" viewBox="0 0 24 24" fill="none" xmlns="http://www.w3.org/2000/svg"><mask id="mask0_3909_4608" style="mask-type:alpha" maskUnits="userSpaceOnUse" x="0" y="0" width="24" height="24"><rect width="24" height="24" fill="currentColor"></rect></mask><g mask="url(#mask0_3909_4608)"><path d="M10.7456 21.254V13.3073C9.68829 13.2791 8.67271 13.0538 7.69887 12.6313C6.72487 12.2088 5.86288 11.6225 5.11288 10.8725C4.33554 10.0964 3.73962 9.19953 3.32512 8.18203C2.91046 7.16437 2.70312 6.10362 2.70312 4.99978V2.71729H4.98563C6.07246 2.71729 7.12479 2.92879 8.14262 3.35179C9.16029 3.77479 10.0573 4.37487 10.8336 5.15204C11.3031 5.62154 11.704 6.1387 12.0364 6.70354C12.3685 7.26837 12.6357 7.86787 12.8379 8.50204C12.882 8.44154 12.9305 8.3832 12.9834 8.32704C13.0362 8.27087 13.0935 8.21254 13.1554 8.15204C13.9315 7.37487 14.8284 6.77479 15.8459 6.35179C16.8635 5.92879 17.9243 5.71729 19.0281 5.71729H21.3109V7.99978C21.3109 9.10362 21.0993 10.1644 20.6761 11.182C20.2531 12.1995 19.653 13.0964 18.8759 13.8725C18.1259 14.6225 17.2658 15.2046 16.2956 15.6188C15.3253 16.033 14.3115 16.2541 13.2541 16.2823V21.254H10.7456Z" fill="currentColor"></path></g></svg>