<svg width="24" height="24" viewBox="0 0 24 24" fill="none" xmlns="http://www.w3.org/2000/svg" class="h-6 w-6"><mask id="mask0_6288_5733" style="mask-type:alpha" maskUnits="userSpaceOnUse" x="0" y="0" width="24" height="24"><rect width="24" height="24" fill="#D9D9D9"></rect></mask><g mask="url(#mask0_6288_5733)"><path d="M11.4871 21L9.88031 19.5257C8.32239 18.0993 7.03492 16.8651 6.01789 15.8233C5.00086 14.7815 4.19595 13.8458 3.60317 13.0161C3.01055 12.1865 2.59519 11.4201 2.35712 10.7168C2.11904 10.0137 2 9.28639 2 8.53495C2 6.95789 2.51576 5.64113 3.54727 4.58468C4.57879 3.52823 5.86755 3 7.41354 3C8.18963 3 8.92792 3.15189 9.62842 3.45567C10.3291 3.75929 10.9486 4.19718 11.4871 4.76935C12.0257 4.19718 12.6453 3.75929 13.346 3.45567C14.0465 3.15189 14.7847 3 15.5607 3C17.1068 3 18.3999 3.52823 19.4401 4.58468C20.48 5.64113 21 6.95789 21 8.53495C21 9.27762 20.8831 10.0006 20.6492 10.7039C20.4154 11.407 20 12.1712 19.4032 12.9965C18.8062 13.8218 17.997 14.7575 16.9758 15.8037C15.9544 16.8498 14.6605 18.0905 13.0941 19.5257L11.4871 21Z" fill="currentColor"></path></g></svg>