<svg width="24" height="24" viewBox="0 0 24 24" fill="none" xmlns="http://www.w3.org/2000/svg"><mask id="mask0_3909_4697" style="mask-type:alpha" maskUnits="userSpaceOnUse" x="0" y="0" width="24" height="24"><rect width="24" height="24" fill="currentColor"></rect></mask><g mask="url(#mask0_3909_4697)"><path d="M0.561523 20.4379V6.99994H3.21152V17.7879H19.9995V20.4379H0.561523ZM4.99952 15.9999V3.13794H23.4375V15.9999H4.99952ZM9.43752 13.5619C9.43752 13.0119 9.24169 12.5411 8.85002 12.1494C8.45836 11.7578 7.98752 11.5619 7.43752 11.5619V13.5619H9.43752ZM18.9995 13.5619H20.9995V11.5619C20.4495 11.5619 19.9787 11.7578 19.587 12.1494C19.1954 12.5411 18.9995 13.0119 18.9995 13.5619ZM14.2115 12.5619C15.0449 12.5619 15.7532 12.2703 16.3365 11.6869C16.9199 11.1036 17.2115 10.3953 17.2115 9.56194C17.2115 8.72861 16.9199 8.02027 16.3365 7.43694C15.7532 6.85361 15.0449 6.56194 14.2115 6.56194C13.3782 6.56194 12.6699 6.85361 12.0865 7.43694C11.5032 8.02027 11.2115 8.72861 11.2115 9.56194C11.2115 10.3953 11.5032 11.1036 12.0865 11.6869C12.6699 12.2703 13.3782 12.5619 14.2115 12.5619ZM7.43752 7.56194C7.98752 7.56194 8.45836 7.36611 8.85002 6.97444C9.24169 6.58277 9.43752 6.11194 9.43752 5.56194H7.43752V7.56194ZM20.9995 7.56194V5.56194H18.9995C18.9995 6.11194 19.1954 6.58277 19.587 6.97444C19.9787 7.36611 20.4495 7.56194 20.9995 7.56194Z" fill="currentColor"></path></g></svg>