<svg class="h-4 w-4" xmlns="http://www.w3.org/2000/svg" width="16" height="16" viewBox="0 0 16 16" fill="none"><path d="M0 2.15289C0 1.63982 0.180185 1.21654 0.540541 0.883053C0.900896 0.549554 1.36937 0.382812 1.94595 0.382812C2.51223 0.382812 2.97039 0.546984 3.32046 0.875357C3.68082 1.21398 3.861 1.65521 3.861 2.19907C3.861 2.69161 3.68598 3.10206 3.33591 3.43043C2.97555 3.76905 2.50193 3.93837 1.91506 3.93837H1.89961C1.33333 3.93837 0.875166 3.76905 0.525097 3.43043C0.175027 3.09181 0 2.66596 0 2.15289ZM0.200772 15.6209V5.33904H3.62934V15.6209H0.200772ZM5.52896 15.6209H8.95753V9.87968C8.95753 9.52052 8.99872 9.24347 9.08108 9.04851C9.22522 8.69962 9.44402 8.4046 9.73745 8.16347C10.0309 7.92233 10.399 7.80176 10.8417 7.80176C11.9949 7.80176 12.5714 8.57649 12.5714 10.126V15.6209H16V9.72576C16 8.20708 15.6396 7.05525 14.9189 6.27026C14.1982 5.48526 13.2458 5.09277 12.0618 5.09277C10.7336 5.09277 9.69884 5.66227 8.95753 6.80128V6.83206H8.94209L8.95753 6.80128V5.33904H5.52896C5.54954 5.6674 5.55985 6.6884 5.55985 8.40205C5.55985 10.1157 5.54954 12.522 5.52896 15.6209Z" fill="currentColor"></path></svg>