<svg width="24" height="25" viewBox="0 0 25 24" fill="none" xmlns="http://www.w3.org/2000/svg"><mask id="mask0_4425_3010" style="mask-type:alpha" maskUnits="userSpaceOnUse" x="0" y="0" width="25" height="24"><rect x="0.5" width="24" height="24" fill="currentColor"></rect></mask><g mask="url(#mask0_4425_3010)"><path d="M12.5 11.7593C11.2587 11.7593 10.2016 11.3228 9.32878 10.45C8.45595 9.57717 8.01953 8.52008 8.01953 7.27875C8.01953 6.03742 8.45595 4.98275 9.32878 4.11475C10.2016 3.24658 11.2587 2.8125 12.5 2.8125C13.7414 2.8125 14.7984 3.24658 15.6713 4.11475C16.5441 4.98275 16.9805 6.03742 16.9805 7.27875C16.9805 8.52008 16.5441 9.57717 15.6713 10.45C14.7984 11.3228 13.7414 11.7593 12.5 11.7593ZM4.01953 20.7203V17.4115C4.01953 16.7572 4.18986 16.1558 4.53053 15.6073C4.87103 15.0589 5.32353 14.6404 5.88803 14.3518C6.9497 13.8256 8.03245 13.4287 9.13628 13.161C10.2403 12.8932 11.3615 12.7593 12.5 12.7593C13.6565 12.7593 14.7869 12.8907 15.8913 13.1538C16.9956 13.4169 18.0692 13.8115 19.112 14.3375C19.6765 14.6248 20.129 15.0414 20.4695 15.5873C20.8102 16.1331 20.9805 16.7409 20.9805 17.4108V20.7203H4.01953Z" fill="currentColor"></path></g></svg>