<svg width="24" height="24" viewBox="0 0 24 24" fill="none" xmlns="http://www.w3.org/2000/svg" class="h-6 w-6"><mask id="mask0_6288_5739" style="mask-type:alpha" maskUnits="userSpaceOnUse" x="0" y="0" width="24" height="24"><rect width="24" height="24" fill="#D9D9D9"></rect></mask><g mask="url(#mask0_6288_5739)"><path d="M9.672 21.2957L6.999 16.3425L2.04575 13.6695L4.24475 11.4815L7.912 12.149L10.0522 9.9945L2 6.549L4.5805 3.94675L14.347 5.70325L17.3763 2.674C17.8256 2.22467 18.3783 2 19.0345 2C19.6907 2 20.2433 2.22467 20.6925 2.674C21.1418 3.12317 21.3665 3.67408 21.3665 4.32675C21.3665 4.97925 21.1418 5.53017 20.6925 5.9795L17.6522 9.0195L19.3948 18.775L16.8175 21.3522L13.347 13.3L11.2067 15.4545L11.8707 19.0968L9.672 21.2957Z" fill="currentColor"></path></g></svg>