<svg width="24" height="24" viewBox="0 0 24 24" fill="none" xmlns="http://www.w3.org/2000/svg"><mask id="mask0_6857_5479" style="mask-type:alpha" maskUnits="userSpaceOnUse" x="0" y="0" width="24" height="24"><rect width="24" height="24" fill="currentColor"></rect></mask><g mask="url(#mask0_6857_5479)"><path d="M7.86925 11.749C6.79775 11.749 5.88733 11.3702 5.138 10.6127C4.38883 9.85525 4.01425 8.94075 4.01425 7.86925C4.01425 6.79775 4.38883 5.88733 5.138 5.138C5.88733 4.38883 6.79775 4.01425 7.86925 4.01425C8.94075 4.01425 9.85525 4.38883 10.6128 5.138C11.3703 5.88733 11.749 6.79775 11.749 7.86925C11.749 8.94075 11.3703 9.85525 10.6128 10.6127C9.85525 11.3702 8.94075 11.749 7.86925 11.749ZM7.86825 9.099C8.21008 9.099 8.50067 8.97933 8.74 8.74C8.97933 8.50067 9.099 8.21008 9.099 7.86825C9.099 7.52642 8.97933 7.24025 8.74 7.00975C8.50067 6.77942 8.21008 6.66425 7.86825 6.66425C7.52642 6.66425 7.24025 6.77942 7.00975 7.00975C6.77942 7.24025 6.66425 7.52642 6.66425 7.86825C6.66425 8.21008 6.77942 8.50067 7.00975 8.74C7.24025 8.97933 7.52642 9.099 7.86825 9.099ZM17.0913 20.961C16.0224 20.961 15.1087 20.5833 14.35 19.8278C13.5913 19.0723 13.212 18.1601 13.212 17.0912C13.212 16.0224 13.5908 15.111 14.3483 14.357C15.1058 13.6032 16.0203 13.2262 17.0918 13.2262C18.1633 13.2262 19.076 13.604 19.83 14.3595C20.584 15.115 20.961 16.0271 20.961 17.0957C20.961 18.1646 20.5833 19.076 19.8278 19.83C19.0723 20.584 18.1601 20.961 17.0913 20.961ZM17.0927 18.311C17.4346 18.311 17.7208 18.1923 17.9513 17.955C18.1816 17.7175 18.2968 17.4292 18.2968 17.0903C18.2968 16.7511 18.1816 16.464 17.9513 16.229C17.7208 15.9938 17.4346 15.8762 17.0927 15.8762C16.7509 15.8762 16.4603 15.9949 16.221 16.2322C15.9817 16.4696 15.862 16.7578 15.862 17.0968C15.862 17.4359 15.9817 17.7231 16.221 17.9582C16.4603 18.1934 16.7509 18.311 17.0927 18.311ZM5.85225 20.961L4 19.1087L19.123 4L20.961 5.838L5.85225 20.961Z" fill="currentColor"></path></g></svg>