<svg xmlns="http://www.w3.org/2000/svg" width="20" height="20" viewBox="0 0 20 20" fill="none" class="h-[0.875rem] w-[0.875rem]"><path d="M10 14.1799C9.40286 14.1799 8.8967 13.9723 8.48153 13.5571C8.06636 13.1418 7.85878 12.6356 7.85878 12.0386C7.85878 11.4415 8.06636 10.9353 8.48153 10.5201C8.8967 10.1048 9.40286 9.89712 10 9.89712C10.5972 9.89712 11.1034 10.1048 11.5185 10.5201C11.9337 10.9353 12.1413 11.4415 12.1413 12.0386C12.1413 12.6356 11.9337 13.1418 11.5185 13.5571C11.1034 13.9723 10.5972 14.1799 10 14.1799ZM4.93928 4.91137H15.049L17.2328 0.515625H2.75328L4.93928 4.91137ZM6.32928 19.4766H13.6708C15.2846 19.4766 16.6564 18.9164 17.786 17.7959C18.9157 16.6754 19.4805 15.2995 19.4805 13.6681C19.4805 12.9868 19.3651 12.325 19.1343 11.6826C18.9034 11.0401 18.5692 10.4584 18.1315 9.93737L15.6023 6.91137H4.39778L1.85428 9.93737C1.41661 10.449 1.08478 11.0276 0.858781 11.6731C0.632615 12.3186 0.519531 12.9821 0.519531 13.6636C0.519531 15.2955 1.07986 16.6722 2.20053 17.7939C3.32136 18.9157 4.69762 19.4766 6.32928 19.4766Z" fill="currentColor"></path></svg>