<svg class="h-4 w-4" xmlns="http://www.w3.org/2000/svg" width="15" height="16" viewBox="0 0 15 16" fill="none"><path d="M14.9996 6.55969C13.5255 6.56298 12.0876 6.13392 10.889 5.33313V10.9181C10.8885 11.9525 10.5498 12.9622 9.918 13.812C9.2862 14.6619 8.39146 15.3115 7.35344 15.6739C6.31541 16.0364 5.18356 16.0944 4.10925 15.8402C3.03493 15.5861 2.06935 15.0319 1.34161 14.2517C0.613876 13.4716 0.158675 12.5026 0.0368769 11.4745C-0.0849216 10.4464 0.132487 9.40803 0.660033 8.49833C1.18758 7.58863 2.00012 6.85093 2.989 6.38387C3.97788 5.91681 5.09596 5.74265 6.19375 5.88469V8.69375C5.6914 8.54627 5.15197 8.55072 4.65248 8.70644C4.153 8.86217 3.71901 9.16123 3.41249 9.5609C3.10597 9.96057 2.94259 10.4404 2.94569 10.9319C2.9488 11.4234 3.11822 11.9014 3.42976 12.2977C3.7413 12.694 4.17904 12.9882 4.68045 13.1385C5.18187 13.2887 5.72132 13.2872 6.22178 13.1342C6.72223 12.9812 7.15809 12.6845 7.46712 12.2866C7.77615 11.8886 7.94254 11.4096 7.94253 10.9181V0H10.889C10.8869 0.232231 10.9078 0.464146 10.9512 0.692813C11.0536 1.20328 11.2665 1.68888 11.5769 2.11992C11.8872 2.55096 12.2885 2.91837 12.7563 3.19969C13.4217 3.61034 14.2018 3.82922 14.9996 3.82906V6.55969Z" fill="currentColor"></path></svg>