<svg width="24" height="24" viewBox="0 0 24 24" fill="none" xmlns="http://www.w3.org/2000/svg"><mask id="mask0_4000_1926" style="mask-type:alpha" maskUnits="userSpaceOnUse" x="0" y="0" width="24" height="24"><rect width="24" height="24" fill="currentColor"></rect></mask><g mask="url(#mask0_4000_1926)"><path d="M14.1695 13.5935H18.8305V11.3675H14.1695V13.5935ZM14.1695 10.3675H18.8305V8.14128H14.1695V10.3675ZM5.16953 15.8588H13.1695V15.5913C13.1695 14.8413 12.8029 14.2454 12.0695 13.8038C11.3362 13.3621 10.3695 13.1413 9.16953 13.1413C7.96953 13.1413 7.00286 13.3621 6.26953 13.8038C5.5362 14.2454 5.16953 14.8413 5.16953 15.5913V15.8588ZM9.16953 12.1413C9.71953 12.1413 10.1904 11.9454 10.582 11.5538C10.9737 11.1621 11.1695 10.6913 11.1695 10.1413C11.1695 9.59128 10.9737 9.12045 10.582 8.72878C10.1904 8.33711 9.71953 8.14128 9.16953 8.14128C8.61953 8.14128 8.1487 8.33711 7.75703 8.72878C7.36536 9.12045 7.16953 9.59128 7.16953 10.1413C7.16953 10.6913 7.36536 11.1621 7.75703 11.5538C8.1487 11.9454 8.61953 12.1413 9.16953 12.1413ZM1.51953 20.4805V3.51953H22.4805V20.4805H1.51953Z" fill="currentColor"></path></g></svg>