<svg width="24" height="24" viewBox="0 0 24 24" fill="none" xmlns="http://www.w3.org/2000/svg" class="h-6 w-6"><mask id="mask0_6288_5691" style="mask-type:alpha" maskUnits="userSpaceOnUse" x="0" y="0" width="24" height="24"><rect width="24" height="24" fill="#D9D9D9"></rect></mask><g mask="url(#mask0_6288_5691)"><path d="M12.4805 22.961C11.0478 22.961 9.69492 22.6843 8.42175 22.131C7.14858 21.5778 6.03667 20.8258 5.086 19.875C4.13517 18.9243 3.38317 17.8124 2.83 16.5392C2.27667 15.2661 2 13.9132 2 12.4805C2 11.0407 2.27667 9.68592 2.83 8.41625C3.38317 7.14675 4.13517 6.03667 5.086 5.086C6.03667 4.13517 7.14858 3.38317 8.42175 2.83C9.69492 2.27667 11.0478 2 12.4805 2C13.9203 2 15.2751 2.27667 16.5448 2.83C17.8143 3.38317 18.9243 4.13517 19.875 5.086C20.8258 6.03667 21.5778 7.14675 22.131 8.41625C22.6843 9.68592 22.961 11.0407 22.961 12.4805C22.961 13.9132 22.6843 15.2661 22.131 16.5392C21.5778 17.8124 20.8258 18.9243 19.875 19.875C18.9243 20.8258 17.8143 21.5778 16.5448 22.131C15.2751 22.6843 13.9203 22.961 12.4805 22.961ZM12.4523 20.275C12.8479 19.6938 13.2041 19.0807 13.5208 18.4355C13.8374 17.7902 14.0957 17.1102 14.2957 16.3957H10.6512C10.8512 17.1102 11.1025 17.7902 11.405 18.4355C11.7075 19.0807 12.0566 19.6938 12.4523 20.275ZM9.923 19.875C9.60417 19.3438 9.34167 18.7824 9.1355 18.1908C8.92933 17.5991 8.75125 17.0007 8.60125 16.3957H5.736C6.191 17.2102 6.77392 17.9211 7.48475 18.5282C8.19575 19.1356 9.0085 19.5845 9.923 19.875ZM14.9957 19.875C15.9102 19.5845 16.7277 19.1356 17.448 18.5282C18.1682 17.9211 18.7558 17.2102 19.211 16.3957H16.3457C16.1957 17.0007 16.0129 17.5991 15.7973 18.1908C15.5818 18.7824 15.3146 19.3438 14.9957 19.875ZM4.9 14.438H8.20125C8.15125 14.1047 8.11375 13.7802 8.08875 13.4647C8.06375 13.1491 8.05125 12.821 8.05125 12.4805C8.05125 12.1305 8.06375 11.8001 8.08875 11.4892C8.11375 11.1784 8.15125 10.8563 8.20125 10.523H4.9C4.81667 10.8468 4.75417 11.1666 4.7125 11.4822C4.67083 11.7977 4.65 12.1305 4.65 12.4805C4.65 12.821 4.67083 13.1514 4.7125 13.4717C4.75417 13.7921 4.81667 14.1142 4.9 14.438ZM10.2013 14.438H14.7457C14.7957 14.1047 14.8285 13.7802 14.844 13.4647C14.8597 13.1491 14.8675 12.821 14.8675 12.4805C14.8675 12.1305 14.8597 11.8001 14.844 11.4892C14.8285 11.1784 14.7957 10.8563 14.7457 10.523H10.2013C10.1512 10.8563 10.1137 11.1784 10.0887 11.4892C10.0638 11.8001 10.0512 12.1305 10.0512 12.4805C10.0512 12.821 10.0638 13.1491 10.0887 13.4647C10.1137 13.7802 10.1512 14.1047 10.2013 14.438ZM16.7457 14.438H20.0328C20.1161 14.1142 20.1786 13.7921 20.2203 13.4717C20.2619 13.1514 20.2828 12.821 20.2828 12.4805C20.2828 12.1305 20.2619 11.7977 20.2203 11.4822C20.1786 11.1666 20.1161 10.8468 20.0328 10.523H16.7457C16.7862 10.8563 16.8167 11.1784 16.837 11.4892C16.8573 11.8001 16.8675 12.1305 16.8675 12.4805C16.8675 12.821 16.8573 13.1491 16.837 13.4647C16.8167 13.7802 16.7862 14.1047 16.7457 14.438ZM16.3457 8.55125H19.211C18.7558 7.73675 18.1682 7.02817 17.448 6.4255C16.7277 5.823 15.9102 5.3765 14.9957 5.086C15.3146 5.61717 15.5818 6.17617 15.7973 6.763C16.0129 7.35 16.1957 7.94608 16.3457 8.55125ZM10.6512 8.55125H14.2957C14.1051 7.83675 13.8514 7.15917 13.5347 6.5185C13.2181 5.878 12.8573 5.26717 12.4523 4.686C12.0566 5.26717 11.7075 5.878 11.405 6.5185C11.1025 7.15917 10.8512 7.83675 10.6512 8.55125ZM5.736 8.55125H8.60125C8.75125 7.94608 8.92933 7.35 9.1355 6.763C9.34167 6.17617 9.60417 5.61717 9.923 5.086C9.0085 5.3765 8.19575 5.823 7.48475 6.4255C6.77392 7.02817 6.191 7.73675 5.736 8.55125Z" fill="currentColor"></path></g></svg>