<svg class="h-4 w-4" xmlns="http://www.w3.org/2000/svg" width="18" height="14" viewBox="0 0 18 14" fill="none"><path d="M9.38914 13.2024L5.7783 13.1349C4.60919 13.1114 3.43717 13.1584 2.29098 12.9147C0.547372 12.5507 0.423848 10.7659 0.294593 9.26882C0.116494 7.16407 0.185441 5.02112 0.521538 2.93395C0.711276 1.76282 1.45797 1.064 2.61271 0.987956C6.5108 0.711978 10.4348 0.744684 14.3243 0.873438C14.735 0.885241 15.1486 0.949753 15.5537 1.02318C17.5531 1.38133 17.6018 3.40391 17.7314 5.10654C17.8607 6.82674 17.8061 8.55576 17.5591 10.2642C17.3609 11.6788 16.9816 12.8651 15.3813 12.9796C13.3762 13.1294 11.4171 13.2499 9.40633 13.2115C9.40642 13.2024 9.39487 13.2024 9.38914 13.2024ZM7.26631 9.62111C8.77734 8.73452 10.2595 7.86271 11.7619 6.98207C10.2481 6.09548 8.7687 5.22367 7.26631 4.34303V9.62111Z" fill="currentColor"></path></svg>